<?xml version="1.0" standalone="no"?>
<!DOCTYPE svg PUBLIC "-//W3C//DTD SVG 20010904//EN"
 "http://www.w3.org/TR/2001/REC-SVG-20010904/DTD/svg10.dtd">
<svg version="1.0" xmlns="http://www.w3.org/2000/svg"
 width="200.000000pt" height="200.000000pt" viewBox="0 0 200.000000 200.000000"
 preserveAspectRatio="xMidYMid meet">

<g transform="translate(0.000000,200.000000) scale(0.100000,-0.100000)"
fill="#000000" stroke="none">
<path d="M331 1094 c7 -9 28 -58 45 -108 41 -120 54 -122 89 -14 15 46 36 95
46 111 l20 27 -38 0 c-30 -1 -34 -3 -21 -10 15 -10 15 -16 -8 -82 -13 -39 -26
-73 -28 -75 -2 -2 -16 31 -30 73 -20 60 -23 80 -13 86 7 4 -6 8 -32 8 -39 0
-42 -2 -30 -16z"/>
<path d="M553 1099 c14 -8 17 -25 17 -99 0 -74 -3 -91 -17 -99 -14 -8 -7 -10
32 -10 28 0 44 3 38 6 -18 7 -18 199 0 206 6 3 -10 6 -38 6 -39 0 -46 -2 -32
-10z"/>
<path d="M707 1099 c-26 -16 -47 -63 -47 -109 0 -33 6 -48 30 -71 28 -28 34
-30 95 -27 l65 3 0 42 c0 24 5 43 13 46 6 3 -10 6 -38 6 -39 0 -46 -2 -32 -10
22 -13 23 -67 1 -76 -71 -27 -119 96 -68 175 22 34 104 24 104 -13 0 -8 4 -15
8 -15 5 0 7 12 4 28 -3 26 -7 27 -60 30 -31 1 -65 -3 -75 -9z"/>
<path d="M899 1101 c20 -13 20 -189 0 -202 -9 -6 -1 -8 26 -8 22 1 32 3 23 6
-15 4 -18 17 -18 91 l0 87 60 -92 c33 -51 65 -93 72 -93 10 0 14 27 16 102 2
65 8 106 15 110 7 4 -6 7 -28 7 -22 -1 -32 -3 -22 -6 14 -4 17 -17 17 -81 l0
-77 -55 83 c-50 75 -58 82 -88 82 -22 0 -28 -3 -18 -9z"/>
<path d="M1143 1099 c14 -8 17 -25 17 -104 0 -81 -2 -94 -17 -98 -10 -3 21 -5
70 -6 86 -1 87 -1 87 24 l0 25 -21 -21 c-13 -13 -30 -19 -47 -17 -25 3 -27 7
-30 51 -3 44 -2 47 22 47 14 0 30 -8 35 -17 8 -14 10 -10 10 22 0 32 -2 36
-10 23 -5 -10 -21 -18 -34 -18 -23 0 -25 4 -25 45 0 41 2 45 24 45 35 0 56
-10 56 -26 0 -8 4 -14 9 -14 4 0 6 11 3 25 -4 24 -7 25 -86 25 -60 -1 -76 -3
-63 -11z"/>
<path d="M1356 1091 c-30 -33 -17 -71 34 -101 37 -22 45 -31 45 -56 0 -43 -41
-46 -75 -5 l-26 30 4 -33 c4 -32 5 -33 57 -35 48 -2 56 1 70 23 24 36 15 67
-25 93 -72 46 -76 50 -64 70 16 26 49 28 72 3 l19 -21 -4 24 c-4 20 -11 24
-47 26 -31 1 -47 -3 -60 -18z"/>
<path d="M1523 1099 c25 -15 25 -183 0 -198 -14 -8 -7 -10 32 -10 28 0 44 3
38 6 -8 3 -13 24 -13 54 l0 50 48 -3 47 -3 1 -43 c1 -30 -3 -45 -15 -52 -12
-7 -2 -9 34 -9 39 0 46 2 33 10 -15 8 -18 25 -18 99 0 74 3 91 18 99 13 8 6
10 -33 10 -36 0 -45 -2 -34 -9 11 -6 16 -22 15 -47 l-1 -38 -47 -3 -48 -3 0
45 c0 26 5 46 13 49 6 3 -10 6 -38 6 -39 0 -46 -2 -32 -10z"/>
<path d="M1790 910 c0 -13 7 -20 20 -20 13 0 20 7 20 20 0 13 -7 20 -20 20
-13 0 -20 -7 -20 -20z"/>
</g>
</svg>
